<svg id="Capa_1" enable-background="new 0 0 510 510" height="512" viewBox="0 0 510 510" width="512" xmlns="http://www.w3.org/2000/svg" xmlns:xlink="http://www.w3.org/1999/xlink"><linearGradient id="SVGID_1_" gradientTransform="matrix(.809 .588 -.588 .809 288.944 -71.882)" gradientUnits="userSpaceOnUse" x1="118.254" x2="244.454" y1="418.314" y2="544.513"><stop offset="0" stop-color="#fd4755"/><stop offset="1" stop-color="#d2024e"/></linearGradient><linearGradient id="SVGID_2_" gradientUnits="userSpaceOnUse" x1="203.738" x2="169.738" y1="478.379" y2="331.712"><stop offset="0" stop-color="#c00148" stop-opacity="0"/><stop offset="1" stop-color="#6d3326"/></linearGradient><linearGradient id="SVGID_3_" gradientUnits="userSpaceOnUse" x1="360.762" x2="360.762" y1="360.667" y2="510.293"><stop offset="0" stop-color="#26a6fe"/><stop offset="1" stop-color="#2740b0"/></linearGradient><linearGradient id="SVGID_4_" gradientUnits="userSpaceOnUse" x1="385.752" x2="330.419" y1="426.937" y2="366.27"><stop offset="0" stop-color="#2740b0" stop-opacity="0"/><stop offset=".3597" stop-color="#203598" stop-opacity=".36"/><stop offset=".7399" stop-color="#1b2d84" stop-opacity=".74"/><stop offset="1" stop-color="#192a7d"/></linearGradient><linearGradient id="lg1"><stop offset="0" stop-color="#fee97d"/><stop offset="1" stop-color="#fac600"/></linearGradient><linearGradient id="SVGID_5_" gradientUnits="userSpaceOnUse" x1="142.171" x2="338.437" xlink:href="#lg1" y1="92.812" y2="289.078"/><linearGradient id="SVGID_6_" gradientUnits="userSpaceOnUse" x1="360.747" x2="124.128" xlink:href="#lg1" y1="311.391" y2="74.772"/><linearGradient id="lg2"><stop offset="0" stop-color="#fac600" stop-opacity="0"/><stop offset=".6899" stop-color="#d68c3d" stop-opacity=".69"/><stop offset="1" stop-color="#c5715a"/></linearGradient><linearGradient id="SVGID_7_" gradientUnits="userSpaceOnUse" x1="482.603" x2="250.603" xlink:href="#lg2" y1="354.521" y2="218.521"/><linearGradient id="SVGID_8_" gradientUnits="userSpaceOnUse" x1="255" x2="255" xlink:href="#lg2" y1="297.137" y2="414.176"/><linearGradient id="SVGID_9_" gradientUnits="userSpaceOnUse" x1="150.815" x2="339.213" y1="98.575" y2="286.973"><stop offset="0" stop-color="#a0d4ff"/><stop offset="1" stop-color="#0593fc"/></linearGradient><linearGradient id="lg3"><stop offset="0" stop-color="#a2e62e"/><stop offset=".1231" stop-color="#97de30"/><stop offset=".3395" stop-color="#79cb36"/><stop offset=".6234" stop-color="#4aab3f"/><stop offset=".9609" stop-color="#09804c"/><stop offset="1" stop-color="#017b4e"/></linearGradient><linearGradient id="SVGID_10_" gradientUnits="userSpaceOnUse" x1="221.569" x2="418.336" xlink:href="#lg3" y1="69.072" y2="265.839"/><linearGradient id="SVGID_11_" gradientUnits="userSpaceOnUse" x1="129.087" x2="254.216" xlink:href="#lg3" y1="210.025" y2="335.154"/><linearGradient id="SVGID_12_" gradientUnits="userSpaceOnUse" x1="335.183" x2="367.832" xlink:href="#lg3" y1="230.164" y2="262.813"/><linearGradient id="SVGID_13_" gradientUnits="userSpaceOnUse" x1="196.638" x2="196.638" y1="271.72" y2="341.53"><stop offset="0" stop-color="#017b4e" stop-opacity="0"/><stop offset=".4693" stop-color="#01764a" stop-opacity=".469"/><stop offset="1" stop-color="#026841"/></linearGradient><linearGradient id="SVGID_14_" gradientUnits="userSpaceOnUse" x1="262.42" x2="300.655" y1="232.329" y2="353.506"><stop offset="0" stop-color="#2740b0" stop-opacity="0"/><stop offset=".3153" stop-color="#243ba4" stop-opacity=".315"/><stop offset=".8855" stop-color="#1b2d84" stop-opacity=".886"/><stop offset="1" stop-color="#192a7d"/></linearGradient><g><path d="m140.19 491.013 1.273 8.06c1.797 11.381 16.457 14.907 23.233 5.589l90.304-124.172-118.708-86.33-90.304 124.173c-6.776 9.318 1.096 22.178 12.476 20.38l8.06-1.273c35.136-5.548 68.117 18.437 73.666 53.573z" fill="url(#SVGID_1_)"/><path d="m204.049 450.549 50.951-70.059-118.708-86.33-37.318 51.314z" fill="url(#SVGID_2_)"/><path d="m369.81 491.013-1.273 8.06c-1.797 11.381-16.457 14.907-23.233 5.589l-90.304-124.172 118.708-86.33 90.304 124.173c6.777 9.318-1.096 22.178-12.476 20.38l-8.06-1.273c-35.136-5.548-68.117 18.437-73.666 53.573z" fill="url(#SVGID_3_)"/><path d="m255 380.49 81.336 111.841 105.075-105.076-67.703-93.095z" fill="url(#SVGID_4_)"/><g><path d="m457.139 235.39-11.873 12.523c-8.966 9.457-13.189 22.454-11.493 35.375l2.244 17.093c2.993 22.801-12.386 43.955-34.998 48.142l-16.928 3.134c-12.839 2.377-23.917 10.429-30.14 21.908l-8.175 15.079c-10.973 20.241-35.882 28.332-56.655 18.404l-15.477-7.397c-11.791-5.635-25.498-5.635-37.288 0l-15.477 7.397c-20.773 9.928-45.682 1.836-56.655-18.404l-8.175-15.079c-6.223-11.479-17.3-19.531-30.14-21.908l-16.929-3.134c-22.612-4.187-37.991-25.341-34.998-48.142l2.244-17.093c1.696-12.921-2.527-25.918-11.493-35.375l-11.873-12.523c-15.814-16.68-15.814-42.817 0-59.497l11.873-12.523c8.966-9.457 13.189-22.454 11.493-35.375l-2.244-17.093c-2.992-22.801 12.387-43.955 34.999-48.142l16.928-3.134c12.839-2.377 23.917-10.429 30.14-21.908l8.175-15.079c10.973-20.241 35.882-28.332 56.655-18.404l15.477 7.397c11.791 5.635 25.498 5.635 37.288 0l15.477-7.397c20.773-9.928 45.682-1.836 56.655 18.404l8.175 15.079c6.223 11.479 17.3 19.531 30.14 21.908l16.929 3.134c22.612 4.187 37.991 25.341 34.998 48.142l-2.244 17.093c-1.696 12.921 2.527 25.918 11.493 35.375l11.873 12.523c15.814 16.68 15.814 42.817-.001 59.497z" fill="url(#SVGID_5_)"/><circle cx="254.999" cy="205.643" fill="url(#SVGID_6_)" r="171.83"/><path d="m457.139 235.39c7.402-7.807 11.338-17.686 11.811-27.697l-102.073-102.074c-27.433-30.092-66.949-48.978-110.877-48.978-82.842 0-149.998 67.157-149.998 149.999 0 43.928 18.885 83.444 48.977 110.877l81.903 81.903c11.672-5.389 25.146-5.32 36.764.233l15.477 7.397c20.773 9.928 45.682 1.836 56.655-18.405l8.175-15.079c6.223-11.479 17.3-19.531 30.14-21.908l16.929-3.134c22.612-4.187 37.991-25.34 34.998-48.141l-2.244-17.094c-1.696-12.921 2.527-25.918 11.493-35.375z" fill="url(#SVGID_7_)"/><path d="m74.42 264.137c2.007 6.094 2.662 12.631 1.806 19.151l-2.244 17.093c-2.993 22.801 12.386 43.955 34.998 48.142l16.928 3.134c12.839 2.377 23.917 10.429 30.14 21.908l8.175 15.079c10.973 20.24 35.882 28.332 56.655 18.404l15.477-7.397c11.791-5.635 25.497-5.635 37.288 0l15.477 7.397c20.773 9.928 45.682 1.836 56.655-18.405l8.175-15.079c6.223-11.479 17.3-19.531 30.14-21.908l16.929-3.134c22.612-4.187 37.991-25.34 34.998-48.141l-2.244-17.094c-.856-6.52-.201-13.057 1.806-19.15z" fill="url(#SVGID_8_)"/><g><path d="m405 205.641c0 82.843-67.157 150-150 150-46.397 0-84.874-24.065-112.388-57.153-21.614-25.991-37.612-56.401-37.612-92.847 0-44.01 18.954-83.594 49.143-111.033 26.638-24.21 62.025-37.202 100.857-37.202 28.353 0 54.869 6.102 77.484 19.772 43.462 26.271 72.516 73.974 72.516 128.463z" fill="url(#SVGID_9_)"/><path d="m336.341 109.804c9.563-9.563 7.717-25.623-3.855-32.62-22.616-13.673-49.131-21.543-77.486-21.543-38.52 0-73.643 14.525-100.206 38.39-1.687 1.516-2.646 3.682-2.646 5.95 0 7.128 8.619 10.698 13.659 5.658 9.755-9.755 25.571-9.755 35.325 0 12.983 12.983 30.591 20.277 48.952 20.277h15.44c13.4 0 24.264 10.863 24.264 24.264v1.42c0 6.435-2.556 12.607-7.107 17.157-9.475 9.475-9.475 24.838 0 34.314 13.427 13.427 35.196 13.427 48.623 0l19.573-19.573c8.168-8.168 8.168-21.41 0-29.578l-14.537-14.537c-8.167-8.169-8.167-21.412.001-29.579z" fill="url(#SVGID_10_)"/><path d="m218.203 256.498c-13.469 0-20.214-16.284-10.69-25.808 6.7-6.7 6.7-17.563 0-24.263-6.7-6.7-17.563-6.7-24.263 0l-5.44 5.44c-5.401 5.401-14.158 5.401-19.559 0-7.297-7.297-11.396-17.193-11.396-27.512 0-11.078-8.98-20.058-20.058-20.058-9.782 0-18.183 7.048-19.779 16.699-1.253 7.573-1.938 15.337-2.011 23.248-.764 83.538 66.184 151.252 149.725 151.398 5.738.01 11.4-.303 16.97-.921 7.148-.793 10.243-9.453 5.158-14.539-3.336-3.336-3.336-8.745 0-12.081 10.917-10.917 10.917-28.617 0-39.534l-13.268-13.268c-12.038-12.039-28.365-18.801-45.389-18.801z" fill="url(#SVGID_11_)"/><path d="m338.02 219.296c-7.633 7.633-7.633 20.009 0 27.642l5.359 5.359c3.782 3.782 3.782 9.914 0 13.696-6.101 6.101-1.78 16.533 6.848 16.533 15.349 0 27.793-12.443 27.793-27.793 0-11.229-3.257-22.216-9.377-31.63l-.415-.638c-6.772-10.42-21.421-11.956-30.208-3.169z" fill="url(#SVGID_12_)"/><path d="m108.229 236.818c14.249 67.88 74.146 118.696 146.502 118.823 5.738.01 11.4-.303 16.97-.921 7.148-.793 10.243-9.453 5.158-14.539-3.336-3.336-3.336-8.745 0-12.081 10.917-10.917 10.917-28.617 0-39.534l-13.268-13.268c-12.038-12.038-28.364-18.8-45.388-18.8-10.86 0-17.342-10.586-14.455-19.68z" fill="url(#SVGID_13_)"/><path d="m405 205.641c0 82.841-67.159 150-150 150-4.065 0-8.094-.159-12.076-.482-65.829-5.241-119.682-52.988-134.112-115.782-2.494-10.841-3.812-22.135-3.812-33.735 0-7.453.541-14.776 1.594-21.935h296.812c1.053 7.158 1.594 14.481 1.594 21.934z" fill="url(#SVGID_14_)"/></g></g></g></svg>